<svg width="283" height="74" viewBox="0 0 283 74" fill="none" xmlns="http://www.w3.org/2000/svg">
<path d="M23.8164 15.0771C28.9001 15.0771 33.1216 17.1794 36.0479 20.9834C38.9548 24.7625 40.5342 30.1509 40.5342 36.6787C40.5342 43.2063 38.9548 48.5958 36.0254 52.376C33.0763 56.1816 28.8135 58.2803 23.6533 58.2803C19.4745 58.2802 16.4168 56.869 14.2432 54.584C13.3597 53.6552 12.6364 52.5936 12.042 51.4482V72.6074H1.0752V15.9727H12.042V22.001C12.6579 20.8202 13.4104 19.7293 14.3291 18.7783C16.5424 16.4872 19.6386 15.0772 23.8164 15.0771ZM227.46 15.9727H239.589V24.9043H227.46V43.5166C227.46 45.5483 227.94 46.5939 228.525 47.1514C229.117 47.7148 230.009 47.9648 231.256 47.9648C233.818 47.9648 235.857 45.8422 236.941 43.6729L237.919 41.7168L238.642 43.7812L241.49 51.9219L241.645 52.3604L241.384 52.7461C239.493 55.5366 235.291 58.3613 229.221 58.3613C225.278 58.3613 222.071 57.114 219.851 54.8486C217.633 52.5864 216.492 49.4052 216.492 45.7148V24.9043H210.306V15.9727H216.492V11.5859L216.922 11.3135L226.039 5.5332L227.46 4.63281V15.9727ZM124.822 15.1582C130.979 15.1582 135.859 17.2095 139.194 20.7725C142.522 24.3266 144.226 29.2922 144.227 34.9688C144.227 36.4775 144.061 38.2509 143.883 39.1396L143.734 39.8828H115.668C116.031 42.7603 117.067 44.9267 118.58 46.4072C120.258 48.0484 122.614 48.9414 125.556 48.9414C128.978 48.9414 131.287 48.6006 132.89 47.917C134.435 47.258 135.366 46.2636 136.012 44.7939L136.442 43.8115L137.351 44.3828L143.143 48.0254L143.943 48.5283L143.422 49.3174C140.25 54.1187 134.595 58.2803 125.474 58.2803C119.349 58.2802 114.211 56.1417 110.607 52.334C107.009 48.531 105.012 43.1397 105.012 36.7598C105.012 30.341 107.007 24.9349 110.518 21.124C114.033 17.3075 119.008 15.1583 124.822 15.1582ZM187.657 15.1582C192.756 15.1582 196.865 16.6151 199.699 19.46C202.532 22.3042 203.968 26.4126 203.968 31.4688V46.3662C203.968 47.1909 204.126 47.4796 204.224 47.583C204.306 47.67 204.513 47.8017 205.159 47.8018H208.607V57.4668H202.066C199.825 57.4668 197.677 56.9513 196.082 55.5469C194.811 54.4275 193.989 52.8278 193.694 50.7217C193.025 51.9775 192.183 53.1869 191.138 54.2568C188.822 56.6273 185.553 58.2803 181.145 58.2803C177.719 58.2802 174.872 57.3153 172.871 55.4961C170.86 53.6679 169.8 51.0644 169.8 47.9941C169.8 44.9412 170.873 42.4559 172.812 40.417C174.606 38.531 177.114 37.0533 180.118 35.8174L180.726 35.5732L193.34 30.2324C193.131 28.6671 192.651 27.4723 191.816 26.6377C190.88 25.7016 189.345 25.0674 186.762 25.0674C181.867 25.0674 177.998 27.9206 175.851 31.832L175.199 33.0186L174.33 31.9814L168.876 25.4688L168.411 24.9141L168.839 24.3291C172.078 19.8961 178.526 15.1582 187.657 15.1582ZM262.353 15.1582C268.509 15.1582 273.389 17.2095 276.725 20.7725C280.052 24.3266 281.757 29.2922 281.757 34.9688C281.757 36.4775 281.591 38.2509 281.413 39.1396L281.265 39.8828H253.198C253.561 42.7603 254.597 44.9267 256.11 46.4072C257.788 48.0484 260.145 48.9414 263.086 48.9414C266.508 48.9414 268.819 48.6008 270.425 47.917C271.973 47.2578 272.906 46.2628 273.551 44.7939L273.982 43.8105L274.891 44.3828L280.674 48.0254L281.474 48.5293L280.952 49.3174C277.78 54.1187 272.125 58.2803 263.004 58.2803C256.879 58.2802 251.741 56.1417 248.138 52.334C244.539 48.531 242.542 43.1397 242.542 36.7598C242.542 30.341 244.538 24.9349 248.048 21.124C251.564 17.3075 256.538 15.1583 262.353 15.1582ZM58.4688 15.9727V57.4668H47.502V15.9727H58.4688ZM75.8057 15.9727L76.0781 16.4004L81.7764 25.3555L81.7871 25.3721L81.7969 25.3896L84.6562 30.3467L87.3574 25.6357L87.3682 25.6172L87.3799 25.5986L93.2412 16.4004L93.5137 15.9727H106.219L105.198 17.4277L91.8037 36.5283L104.804 56.0283L105.762 57.4668H93.1064L92.834 57.0381L86.9727 47.8398L86.9658 47.8281L86.959 47.8174L84.0107 42.8838L81.1406 47.7324L81.1338 47.7441L81.127 47.7549L75.2656 57.0352L74.9932 57.4668H62.2803L63.3076 56.0088L76.9434 36.6631L64.1084 17.4102L63.1494 15.9727H75.8057ZM162.77 1.0752V57.4668H151.802V1.0752H162.77ZM184.7 42.4863L184.701 42.4873C183.023 43.2463 181.95 43.9217 181.299 44.5898C180.686 45.2187 180.441 45.8447 180.441 46.6104C180.441 47.523 180.739 48.1463 181.278 48.5693C181.855 49.0218 182.84 49.3486 184.401 49.3486C187.233 49.3486 189.525 48.5079 191.095 47.1182C192.655 45.7373 193.57 43.7563 193.57 41.3184V38.5127L184.7 42.4863ZM20.2344 24.334C17.2448 24.3341 15.2607 25.3247 13.9941 26.9492C12.6959 28.6145 12.042 31.0852 12.042 34.2363V39.1211C12.042 42.2721 12.6959 44.7429 13.9941 46.4082C15.2607 48.0327 17.2448 49.0224 20.2344 49.0225C22.8326 49.0225 25.0623 48.0491 26.6611 46.0869C28.2767 44.1042 29.3232 41.0183 29.3232 36.6787C29.3232 32.3391 28.2767 29.2533 26.6611 27.2705C25.0623 25.3083 22.8326 24.334 20.2344 24.334ZM262.353 24.334C259.727 24.3341 257.63 25.0916 256.106 26.5166C254.755 27.7807 253.778 29.6433 253.328 32.1719H271.552C271.138 29.7047 270.207 27.8493 268.86 26.5742C267.34 25.1347 265.186 24.334 262.353 24.334ZM124.822 24.334C122.197 24.3341 120.099 25.0913 118.575 26.5166C117.224 27.7807 116.247 29.6434 115.798 32.1719H134.021C133.608 29.7047 132.676 27.8493 131.33 26.5742C129.81 25.1347 127.656 24.334 124.822 24.334Z" fill="#273525" stroke="#273525" style="fill:#273525;fill:color(display-p3 0.1529 0.2078 0.1451);fill-opacity:1;stroke:#273525;stroke:color(display-p3 0.1529 0.2078 0.1451);stroke-opacity:1;" stroke-width="1.84967"/>
<path d="M47.1416 5.97925V15.2601H38.0235V5.97925H47.1416Z" fill="#273525" style="fill:#273525;fill:color(display-p3 0.1529 0.2078 0.1451);fill-opacity:1;"/>
</svg>
